<svg preserveAspectRatio="none" width="100%" height="100%" overflow="visible" style="display: block;" viewBox="0 0 24.0006 24.0008" fill="none" xmlns="http://www.w3.org/2000/svg">
<path id="Vector" d="M24.0006 2V22C24.0006 22.5304 23.7898 23.0391 23.4148 23.4142C23.0397 23.7893 22.531 24 22.0006 24H13.0006C12.7353 24 12.481 23.8946 12.2934 23.7071C12.1059 23.5196 12.0006 23.2652 12.0006 23C12.0006 22.7348 12.1059 22.4804 12.2934 22.2929C12.481 22.1054 12.7353 22 13.0006 22H22.0006V2H2.00056V14C2.00056 14.2652 1.8952 14.5196 1.70766 14.7071C1.52013 14.8946 1.26577 15 1.00056 15C0.735339 15 0.480986 14.8946 0.293449 14.7071C0.105913 14.5196 0.000555992 14.2652 0.000555992 14V2C0.000555992 1.46957 0.21127 0.960859 0.586342 0.585786C0.961415 0.210714 1.47012 0 2.00056 0H22.0006C22.531 0 23.0397 0.210714 23.4148 0.585786C23.7898 0.960859 24.0006 1.46957 24.0006 2ZM11.7081 15.2925C11.6152 15.1995 11.5049 15.1258 11.3835 15.0754C11.2621 15.0251 11.132 14.9992 11.0006 14.9992C10.8691 14.9992 10.739 15.0251 10.6176 15.0754C10.4962 15.1258 10.3859 15.1995 10.2931 15.2925L4.00056 21.5863L1.70806 19.2925C1.61515 19.1996 1.50485 19.1259 1.38345 19.0756C1.26206 19.0253 1.13195 18.9994 1.00056 18.9994C0.869161 18.9994 0.739053 19.0253 0.61766 19.0756C0.496267 19.1259 0.385966 19.1996 0.293056 19.2925C0.200146 19.3854 0.126445 19.4957 0.0761628 19.6171C0.0258802 19.7385 0 19.8686 0 20C0 20.1314 0.0258802 20.2615 0.0761628 20.3829C0.126445 20.5043 0.200146 20.6146 0.293056 20.7075L3.29306 23.7075C3.38593 23.8005 3.49622 23.8742 3.61762 23.9246C3.73901 23.9749 3.86914 24.0008 4.00056 24.0008C4.13197 24.0008 4.2621 23.9749 4.3835 23.9246C4.50489 23.8742 4.61518 23.8005 4.70806 23.7075L11.7081 16.7075C11.801 16.6146 11.8748 16.5043 11.9251 16.3829C11.9754 16.2615 12.0013 16.1314 12.0013 16C12.0013 15.8686 11.9754 15.7385 11.9251 15.6171C11.8748 15.4957 11.801 15.3854 11.7081 15.2925Z" fill="var(--fill-0, #A90831)"/>
</svg>
