<svg preserveAspectRatio="none" width="100%" height="100%" overflow="visible" style="display: block;" viewBox="0 0 68.8225 68.808" fill="none" xmlns="http://www.w3.org/2000/svg">
<g id="Icon Container">
<path id="Path 9346" d="M12.6792 44.8008V21.3483H19.0822V30.4742H27.5996V21.3483H34.0024V36.6743C32.0613 36.8046 30.2506 37.4274 28.831 38.8181C28.353 39.2963 27.933 39.8323 27.6142 40.426V35.2546H19.0822V44.8008H12.6792V44.8008Z" fill="var(--fill-0, #AB3347)"/>
<path id="Path 9347" d="M35.2771 21.3483H41.6801V34.8054C41.694 35.4573 41.7237 35.9789 41.7664 36.3703C41.7814 36.4569 41.7957 36.558 41.8099 36.6452H41.7957C41.8684 37.1812 42.0132 37.7028 42.2015 38.1952C42.4622 38.7892 42.9112 39.2817 43.4903 39.5714C44.0559 39.8465 44.6785 40.0059 45.3165 40.0206H46.1128C46.7355 40.0059 47.3585 39.8465 47.9376 39.5714C48.5175 39.2817 48.9664 38.7892 49.2129 38.1952C49.4154 37.7028 49.5456 37.1812 49.6183 36.6452V36.6452C49.633 36.558 49.633 36.4569 49.6472 36.3703C49.6904 35.9789 49.7346 35.4573 49.7489 34.8054V21.3483H56.1515V35.2546C56.1515 36.6019 56.021 38.1086 55.6733 39.4411C55.3983 40.5997 54.8627 41.6719 54.1088 42.57C53.3121 43.5261 52.2109 44.2359 50.8208 44.7139C49.6904 45.0907 48.3723 45.3221 46.866 45.3947H44.548C43.9543 45.3656 43.3462 45.3077 42.7371 45.2209C42.8384 44.7574 42.8969 44.2794 42.8969 43.801C42.8969 41.7298 42.1873 39.9335 40.6078 38.572C39.1165 37.2682 37.2617 36.7467 35.321 36.6598C35.2922 36.1816 35.2771 35.7036 35.2771 35.2546V21.3483Z" fill="var(--fill-0, #AB3347)"/>
<path id="Path 9348" d="M41.6578 57.1421H26.9691L35.6025 46.9152C36.0517 46.4088 36.4427 45.8297 36.7615 45.2348C36.9933 44.8005 37.109 44.3084 37.1385 43.8159C37.1385 43.1486 36.9209 42.5987 36.5006 42.1648C36.0661 41.7439 35.5159 41.5275 34.8201 41.5275C33.9945 41.5275 33.3571 41.8021 32.9226 42.3234C32.4882 42.8452 32.2711 43.6137 32.256 44.6125V44.8447H27.6352V44.7138C27.6352 42.541 28.2727 40.8175 29.5474 39.5707C30.8223 38.3101 32.5608 37.6882 34.777 37.6882C36.9352 37.6882 38.6448 38.2388 39.9193 39.3532C41.2085 40.469 41.8459 41.9461 41.8459 43.7862C41.8459 44.6984 41.6287 45.5975 41.2375 46.4231C40.8319 47.2782 40.1657 48.2047 39.2385 49.2328L35.7764 53.0432H41.6578V57.1421Z" fill="var(--fill-0, #696B6C)"/>
<path id="Path 9349" d="M34.7806 0C53.6123 0.202803 68.8225 15.5289 68.8225 34.404H66.4613C66.4613 16.7022 52.1058 2.3612 34.404 2.3612V0H34.7806ZM34.404 68.808C15.3985 68.808 0 53.4095 0 34.404H2.3612C2.3612 52.1058 16.7022 66.4468 34.404 66.4468V68.808Z" fill="var(--fill-0, #696B6C)"/>
</g>
</svg>
