<svg preserveAspectRatio="none" width="100%" height="100%" overflow="visible" style="display: block;" viewBox="0 0 67.8307 109.387" fill="none" xmlns="http://www.w3.org/2000/svg">
<g id="Arrow">
<path id="Text Header" d="M23.4725 14.042C22.767 12.9759 22.5425 12.0678 22.8565 11.3566C22.2076 5.37297 28.8087 9.76249 31.2876 10.9385C37.3021 13.8385 41.4119 13.5998 48.3293 14.4238C49.8521 14.5318 50.7583 14.558 51.2764 14.909C51.852 15.2991 51.9818 15.9751 52.0094 17.4218C52.0089 20.0254 50.9952 18.9184 49.8197 18.7937C47.5857 18.3718 43.6358 17.8789 41.8252 17.5758C37.9924 16.9103 33.8289 16.6086 30.3081 15.4826C31.7262 19.2155 33.6252 23.1065 34.8949 26.0669C35.3867 27.3242 35.5742 28.0392 33.646 30.5125C31.9705 32.7369 30.4459 32.8796 29.6976 32.3725C29.3522 32.1384 29.1239 31.7317 29.1462 31.3268C29.3166 24.1344 28.1992 21.4452 23.4725 14.042Z" fill="var(--fill-0, #A90831)"/>
<path id="Vector 3404" d="M16.814 102.036C16.6335 102.014 16.4506 102.065 16.306 102.177C16.1613 102.289 16.0666 102.453 16.0426 102.633C16.0186 102.813 16.0671 102.996 16.1775 103.142C16.2878 103.288 16.4508 103.385 16.6309 103.411C16.6309 103.411 16.6309 103.411 16.6309 103.411C18.4155 103.668 20.1341 103.867 21.9017 104.012C30.9095 104.723 40.5661 104.103 48.7232 99.2554C56.9735 94.533 61.699 84.7748 61.4077 75.3799C62.2343 60.9861 50.0271 48.592 37.1348 44.7192C35.5029 44.074 33.8286 43.4647 32.4179 42.7874C31.9767 42.5732 31.4702 42.5444 31.0085 42.7102C30.5469 42.8758 30.168 43.2225 29.9564 43.6711C29.7448 44.1196 29.7183 44.6325 29.8841 45.0941C30.0498 45.5558 30.3942 45.9283 30.8401 46.1326C30.8401 46.1326 30.8401 46.1326 30.8401 46.1326C32.5739 46.913 34.2319 47.4625 35.8628 48.0689C48.4818 51.799 58.9453 61.9593 58.7115 75.4474C59.1419 84.0758 55.1212 92.9235 47.6204 97.4685C40.1877 102.134 30.862 103.03 22.0085 102.513C20.2717 102.409 18.5775 102.251 16.814 102.036Z" fill="var(--stroke-0, #A90831)"/>
</g>
</svg>
