<svg preserveAspectRatio="none" width="100%" height="100%" overflow="visible" style="display: block;" viewBox="0 0 284.093 68.0692" fill="none" xmlns="http://www.w3.org/2000/svg">
<g id="Logo Text">
<path id="Path 9342" d="M13.4864 23.928H41.3421V0.605673H54.8142V66.9946H41.3421V36.3424H13.4864V66.9946H0V0.605673H13.4864V23.928Z" fill="var(--fill-0, #AB3347)"/>
<path id="Path 9343" d="M201.514 55.5534H223.622V66.9973H176.239L202.066 36.0989C204.358 33.361 206.66 30.2755 208.283 27.0887C209.282 25.0896 210.153 22.7863 210.153 20.5265C210.153 18.1943 209.567 15.9635 207.863 14.2976C206.096 12.6028 203.746 12.0523 201.373 12.0523C199.071 12.0523 197.028 12.6897 195.362 14.2976C193.64 15.949 192.884 18.035 192.695 20.3817L192.578 21.8592H179.588V20.2513C179.588 14.4569 181.457 9.3579 185.814 5.46119C190.381 1.40514 196.218 0 202.201 0C207.833 0 213.411 1.27478 217.696 5.09904C221.843 8.77846 223.52 13.6747 223.52 19.1069C223.52 23.4816 222.305 27.6536 220.316 31.5068C218.986 34.0998 217.165 36.6203 215.41 38.9381C212.817 42.3568 210.036 45.6596 207.239 48.9189L201.514 55.5534Z" fill="var(--fill-0, #AB3347)"/>
<path id="Path 9344" d="M229.004 0H242.402V39.9521C242.402 43.9937 243.08 48.6002 245.922 51.6857C248.649 54.6553 252.661 55.4665 256.544 55.4665C260.409 55.4665 264.379 54.6408 267.103 51.6857C269.924 48.6002 270.617 43.9937 270.617 39.9521V0H284.093V40.9082C284.093 48.2381 282.556 55.9156 277.14 61.2464C271.706 66.5917 263.865 68.0692 256.511 68.0692C249.141 68.0692 241.349 66.5917 235.924 61.2609C230.51 55.9156 229.004 48.2091 229.004 40.9082V0Z" fill="var(--fill-0, #AB3347)"/>
<path id="Path 9345" d="M98.4995 48.8983C98.555 53.9105 96.5416 58.7048 92.9498 62.1814C91.1375 63.9195 89.025 65.3103 86.692 66.2522C81.9855 68.1643 76.7419 68.1643 72.0324 66.2522C69.7294 65.325 67.6289 63.9342 65.8616 62.1814C64.0657 60.4722 62.6329 58.4006 61.6607 56.1123C58.6465 49.072 60.3284 40.9016 65.8616 35.6145C67.6289 33.876 69.7294 32.4856 72.0324 31.5438C76.7539 29.6462 82.0125 29.6462 86.737 31.5438C89.052 32.4856 91.169 33.876 92.9498 35.6145C96.5416 39.1057 98.5415 43.9004 98.4995 48.8983ZM79.3779 59.4148C82.0695 59.4148 84.3155 58.4302 86.0859 56.4453C87.8517 54.46 88.7324 51.9399 88.7324 48.8983C88.7324 45.8996 87.8352 43.4079 86.0544 41.3941C84.2585 39.3807 82.029 38.3815 79.3779 38.3815C76.6684 38.3815 74.4239 39.3807 72.655 41.3941C70.8891 43.3794 70.0054 45.8996 70.0054 48.9126C70.0054 51.9687 70.8741 54.4897 72.61 56.4596C74.3654 58.4302 76.6113 59.4148 79.3779 59.4148ZM145.68 66.7296H136.552L134.453 51.2448C134.323 50.1579 134.177 48.9415 134.048 47.5942C133.931 46.2611 133.814 44.7983 133.73 43.2196C133.495 44.7406 133.047 46.6385 132.38 48.8983C132.236 49.3616 132.12 49.7239 132.062 49.9557L127.195 66.7296H120.691L115.822 49.9557C115.75 49.7239 115.65 49.3616 115.522 48.8983C114.84 46.6385 114.389 44.7548 114.172 43.2485C114.086 44.6104 113.971 45.9427 113.839 47.2761C113.71 48.6084 113.549 49.9272 113.375 51.2448L111.276 66.7296H102.207L107.726 30.9215H117.39L122.791 49.3904C122.82 49.5202 122.892 49.7239 122.98 50.0281C123.486 51.6792 123.805 53.085 123.934 54.2579C124.008 53.5482 124.137 52.8382 124.299 52.1432C124.487 51.3607 124.734 50.4189 125.036 49.3323L130.483 30.9215H140.175L145.68 66.7296ZM150.924 66.7296V30.9215H172.869V38.7873H160.439V45.0016H172.158V52.6638H160.439V58.7198H172.869V66.7296H150.924Z" fill="var(--fill-0, #696B6C)"/>
</g>
</svg>
