<svg preserveAspectRatio="none" width="100%" height="100%" overflow="visible" style="display: block;" viewBox="0 0 17.4811 17.4811" fill="none" xmlns="http://www.w3.org/2000/svg">
<path id="Vector" d="M3.51564 7.56542C4.91413 10.3138 7.16724 12.5572 9.91566 13.9654L12.0522 11.8289C12.3144 11.5666 12.7029 11.4792 13.0428 11.5958C14.1305 11.9551 15.3057 12.1494 16.5099 12.1494C17.0441 12.1494 17.4811 12.5864 17.4811 13.1205V16.5099C17.4811 17.0441 17.0441 17.4811 16.5099 17.4811C7.39061 17.4811 0 10.0905 0 0.971171C0 0.437027 0.437027 0 0.971171 0H4.37027C4.90441 0 5.34144 0.437027 5.34144 0.971171C5.34144 2.18514 5.53568 3.35054 5.89501 4.43825C6.00184 4.77816 5.92414 5.15692 5.65222 5.42885L3.51564 7.56542Z" fill="var(--fill-0, #A90831)"/>
</svg>
