<svg preserveAspectRatio="none" width="100%" height="100%" overflow="visible" style="display: block;" viewBox="0 0 100.936 113.933" fill="none" xmlns="http://www.w3.org/2000/svg">
<g id="Icon in Text Section">
<path id="Text Header" d="M59.3412 14.0422C58.6357 12.9761 58.4112 12.0679 58.7252 11.3567C58.0763 5.37315 64.6774 9.76267 67.1563 10.9387C73.1708 13.8387 77.2806 13.5999 84.198 14.424C85.7207 14.532 86.627 14.5581 87.145 14.9092C87.7207 15.2993 87.8505 15.9753 87.8781 17.422C87.8776 20.0256 86.8639 18.9186 85.6884 18.7939C83.4544 18.3719 79.5045 17.8791 77.6939 17.576C73.8611 16.9104 69.6976 16.6088 66.1768 15.4827C67.5949 19.2157 69.4939 23.1066 70.7636 26.067C71.2554 27.3244 71.4429 28.0394 69.5147 30.5126C67.8392 32.7371 66.3146 32.8798 65.5663 32.3727C65.2209 32.1386 64.9926 31.7319 65.0149 31.327C65.1853 24.1346 64.0679 21.4454 59.3412 14.0422Z" fill="var(--fill-0, #A90831)"/>
<path id="Vector 3404" d="M49.4636 72.9081C49.283 72.8861 49.1002 72.9372 48.9555 73.0491C48.8109 73.1611 48.7162 73.3247 48.6921 73.505C48.6681 73.6853 48.7167 73.8679 48.827 74.0138C48.9374 74.1597 49.1004 74.2569 49.2805 74.283C49.2805 74.283 49.2805 74.283 49.2805 74.283C51.0651 74.5397 52.7837 74.7386 54.5513 74.8843C63.5591 75.5949 73.2157 74.9749 81.3728 70.1274C89.6231 65.405 94.3486 55.6468 94.0572 46.2519C94.8839 31.8581 82.6767 19.464 69.7843 15.5912C68.1525 14.946 66.4782 14.3367 65.0675 13.6594C64.6262 13.4452 64.1197 13.4164 63.6581 13.5822C63.1965 13.7478 62.8175 14.0945 62.606 14.5431C62.3944 14.9916 62.3679 15.5045 62.5337 15.966C62.6994 16.4278 63.0437 16.8003 63.4897 17.0046C63.4897 17.0046 63.4897 17.0046 63.4897 17.0046C65.2235 17.785 66.8815 18.3345 68.5124 18.9409C81.1314 22.671 91.5949 32.8313 91.3611 46.3194C91.7915 54.9478 87.7708 63.7955 80.27 68.3405C72.8373 73.0059 63.5116 73.9021 54.658 73.3855C52.9213 73.2806 51.2271 73.1231 49.4636 72.9081Z" fill="var(--stroke-0, #A90831)"/>
</g>
</svg>
