<svg preserveAspectRatio="none" width="100%" height="100%" overflow="visible" style="display: block;" viewBox="0 0 1368.32 1108.49" fill="none" xmlns="http://www.w3.org/2000/svg">
<g id="Detail Background" opacity="0.8">
<g id="Ellipse 1" opacity="0.8" filter="url(#filter0_f_0_9)">
<ellipse cx="608.884" cy="600.381" rx="305.353" ry="204.58" fill="var(--fill-0, #A90831)"/>
</g>
<path id="Vector (Stroke)" opacity="0.4" fill-rule="evenodd" clip-rule="evenodd" d="M203.326 250.91V197.902H204.078V250.91H233.409V197.902H234.162V250.91H263.493V197.902H264.245V250.91L293.576 250.91V197.902H294.328V250.91H323.659V197.902H324.412V250.91H353.743V197.902H354.495V250.91H383.826V197.902H384.578V250.91H413.909V197.902H414.662V250.91H443.993V197.902H444.745V250.91H474.076V197.902H474.828V250.91L504.159 250.91V197.902H504.912V250.91H534.243V197.902H534.995V250.91H564.326V197.902H565.078V250.91H594.409V197.902H595.162V250.91L624.493 250.91V197.902H625.245V250.91H654.576V197.902H655.328V250.91L684.659 250.91V197.902H685.412V250.91H714.743V197.902H715.495V250.91H744.826V197.902H745.578V250.91H774.909V197.902H775.662V250.91L804.993 250.91V197.902H805.745V250.91H835.076V197.902H835.828V250.91L865.159 250.91V197.902H865.911V250.91H895.243V197.902H895.995V250.91H925.326V197.902H926.078V250.91H955.409V197.902H956.162V250.91H985.493V197.902H986.245V250.91L1015.58 250.91V197.902H1016.33V250.91H1045.66V197.902H1046.41V250.91L1075.74 250.91V197.902H1076.49V250.91H1105.83V197.902H1106.58V250.91L1135.91 250.91V197.902H1136.66V250.91H1214.13V251.752L1136.66 251.752V284.566H1214.13V285.407H1136.66V318.222H1214.13V319.063H1136.66V351.877H1214.13V352.719H1136.66V385.533H1214.13V386.374H1136.66V419.189H1214.13V420.03H1136.66V452.844H1214.13V453.686H1136.66V486.5H1214.13V487.341H1136.66V520.155H1214.13V520.997H1136.66V553.811H1214.13V554.653H1136.66V587.467H1214.13V588.308H1136.66V621.122H1214.13V621.964H1136.66V654.778H1214.13V655.62H1136.66V688.434H1214.13V689.275H1136.66V722.09H1214.13V722.931H1136.66V755.745H1214.13V756.587H1136.66V789.401H1214.13V790.242H1136.66V823.057H1214.13V823.898H1136.66V856.712H1214.13V857.554H1136.66V890.368H1214.13V891.209H1136.66V943.375H1135.91V891.209H1106.58V943.375H1105.83V891.209H1076.49V943.375H1075.74V891.209H1046.41V943.375H1045.66V891.209H1016.33V943.375H1015.58V891.209H986.245V943.375H985.493V891.209H956.162V943.375H955.409V891.209H926.078V943.375H925.326V891.209H895.995V943.375H895.243V891.209H865.911V943.375H865.159V891.209H835.828V943.375H835.076V891.209H805.745V943.375H804.993V891.209H775.662V943.375H774.909V891.209H745.578V943.375H744.826V891.209H715.495V943.375H714.743V891.209H685.412V943.375H684.659V891.209H655.328V943.375H654.576V891.209H625.245V943.375H624.493V891.209H595.162V943.375H594.409V891.209H565.078V943.375H564.326V891.209H534.995V943.375H534.243V891.209H504.911V943.375H504.159V891.209H474.828V943.375H474.076V891.209H444.745V943.375H443.993V891.209H414.662V943.375H413.909V891.209H384.578V943.375H383.826V891.209H354.495V943.375H353.743V891.209H324.412V943.375H323.659V891.209H294.328V943.375H293.576V891.209H264.245V943.375H263.493V891.209H234.162V943.375H233.409V891.209H204.078V943.375H203.326V891.209H131.126V890.368H203.326V857.553H131.126V856.712H203.326L203.326 823.898H131.126V823.056H203.326V790.242H131.126V789.401H203.326V756.587H131.126V755.745H203.326V722.931H131.126V722.089H203.326V689.275H131.126V688.434H203.326L203.326 655.62H131.126V654.778H203.326V621.964H131.126V621.122H203.326V588.308H131.126V587.467H203.326V554.653H131.126V553.811H203.326V520.997H131.126V520.155H203.326V487.341H131.126V486.5H203.326L203.326 453.686H131.126V452.844H203.326V420.03H131.126V419.188H203.326V386.374H131.126V385.533H203.326V352.719H131.126V351.877H203.326V319.063H131.126V318.221H203.326L203.326 285.407L131.126 285.407V284.566L203.326 284.566V251.752L131.126 251.752V250.91L203.326 250.91ZM204.078 251.752V284.566H233.409V251.752H204.078ZM234.162 251.752V284.566H263.493V251.752H234.162ZM264.245 251.752V284.566H293.576V251.752L264.245 251.752ZM294.328 251.752V284.566H323.659V251.752H294.328ZM324.412 251.752V284.566H353.743V251.752H324.412ZM354.495 251.752V284.566H383.826V251.752H354.495ZM384.578 251.752V284.566H413.909V251.752H384.578ZM414.662 251.752V284.566L443.993 284.566V251.752H414.662ZM444.745 251.752V284.566H474.076V251.752H444.745ZM474.828 251.752V284.566H504.159V251.752L474.828 251.752ZM504.912 251.752V284.566H534.243V251.752H504.912ZM534.995 251.752V284.566L564.326 284.566V251.752L534.995 251.752ZM565.078 251.752V284.566H594.409V251.752H565.078ZM595.162 251.752V284.566H624.493V251.752L595.162 251.752ZM625.245 251.752V284.566H654.576V251.752H625.245ZM655.328 251.752V284.566H684.659V251.752H655.328ZM685.412 251.752V284.566H714.743V251.752H685.412ZM715.495 251.752V284.566H744.826V251.752L715.495 251.752ZM745.578 251.752V284.566H774.909V251.752H745.578ZM775.662 251.752V284.566L804.993 284.566V251.752L775.662 251.752ZM805.745 251.752V284.566H835.076V251.752H805.745ZM835.828 251.752V284.566H865.159V251.752H835.828ZM865.911 251.752V284.566H895.243V251.752H865.911ZM895.995 251.752V284.566L925.326 284.566V251.752H895.995ZM926.078 251.752V284.566H955.409V251.752L926.078 251.752ZM956.162 251.752V284.566H985.493V251.752H956.162ZM986.245 251.752V284.566H1015.58V251.752L986.245 251.752ZM1016.33 251.752V284.566L1045.66 284.566V251.752H1016.33ZM1046.41 251.752V284.566H1075.74V251.752H1046.41ZM1076.49 251.752V284.566H1105.83V251.752H1076.49ZM1106.58 251.752V284.566H1135.91V251.752L1106.58 251.752ZM1135.91 285.407H1106.58V318.222H1135.91V285.407ZM1135.91 319.063H1106.58V351.877H1135.91V319.063ZM1135.91 352.719H1106.58V385.533H1135.91V352.719ZM1135.91 386.374H1106.58V419.189H1135.91V386.374ZM1135.91 420.03H1106.58V452.844H1135.91V420.03ZM1135.91 453.686H1106.58V486.5H1135.91V453.686ZM1135.91 487.341H1106.58V520.155H1135.91V487.341ZM1135.91 520.997H1106.58V553.811H1135.91V520.997ZM1135.91 554.653H1106.58V587.467H1135.91V554.653ZM1135.91 588.308H1106.58V621.122H1135.91V588.308ZM1135.91 621.964H1106.58V654.778H1135.91V621.964ZM1135.91 655.62H1106.58V688.434H1135.91V655.62ZM1135.91 689.275H1106.58V722.09H1135.91V689.275ZM1135.91 722.931H1106.58V755.745H1135.91V722.931ZM1135.91 756.587H1106.58V789.401H1135.91V756.587ZM1135.91 790.242H1106.58V823.057H1135.91V790.242ZM1135.91 823.898H1106.58V856.712H1135.91V823.898ZM1135.91 857.554H1106.58V890.368H1135.91V857.554ZM1105.83 890.368V857.554H1076.49V890.368H1105.83ZM1075.74 890.368V857.554H1046.41V890.368H1075.74ZM1045.66 890.368V857.554H1016.33V890.368H1045.66ZM1015.58 890.368V857.554H986.245V890.368H1015.58ZM985.493 890.368V857.554H956.162V890.368H985.493ZM955.409 890.368V857.554H926.078V890.368H955.409ZM925.326 890.368V857.554H895.995V890.368H925.326ZM895.243 890.368V857.554H865.911V890.368H895.243ZM865.159 890.368V857.554H835.828V890.368H865.159ZM835.076 890.368V857.554H805.745V890.368H835.076ZM804.993 890.368V857.554H775.662V890.368H804.993ZM774.909 890.368V857.554H745.578V890.368H774.909ZM744.826 890.368V857.554H715.495V890.368H744.826ZM714.743 890.368V857.554H685.412V890.368H714.743ZM684.659 890.368V857.554L655.328 857.553V890.368L684.659 890.368ZM654.576 890.368V857.553H625.245V890.368H654.576ZM624.493 890.368V857.553H595.162V890.368H624.493ZM594.409 890.368V857.553H565.078V890.368H594.409ZM564.326 890.368V857.553H534.995V890.368H564.326ZM534.243 890.368V857.553H504.911V890.368H534.243ZM504.159 890.368V857.553H474.828V890.368H504.159ZM474.076 890.368V857.553H444.745V890.368H474.076ZM443.993 890.368V857.553H414.662V890.368H443.993ZM413.909 890.368V857.553H384.578V890.368H413.909ZM383.826 890.368V857.553H354.495V890.368H383.826ZM353.743 890.368V857.553H324.412V890.368H353.743ZM323.659 890.368V857.553H294.328V890.368H323.659ZM293.576 890.368V857.553H264.245V890.368H293.576ZM263.493 890.368V857.553H234.162V890.368H263.493ZM233.409 890.368V857.553H204.078V890.368H233.409ZM204.078 856.712H233.409V823.898H204.078L204.078 856.712ZM204.078 823.056H233.409V790.242H204.078V823.056ZM204.078 789.401H233.409L233.409 756.587H204.078V789.401ZM204.078 755.745H233.409V722.931H204.078V755.745ZM204.078 722.089H233.409V689.275H204.078V722.089ZM204.078 688.434H233.409V655.62H204.078L204.078 688.434ZM204.078 654.778H233.409V621.964H204.078V654.778ZM204.078 621.122H233.409V588.308H204.078V621.122ZM204.078 587.467H233.409V554.653H204.078V587.467ZM204.078 553.811H233.409V520.997H204.078V553.811ZM204.078 520.155H233.409V487.341H204.078V520.155ZM204.078 486.5H233.409V453.686H204.078L204.078 486.5ZM204.078 452.844H233.409V420.03H204.078V452.844ZM204.078 419.188H233.409V386.374H204.078V419.188ZM204.078 385.533H233.409L233.409 352.719H204.078V385.533ZM204.078 351.877H233.409V319.063H204.078V351.877ZM204.078 318.221H233.409V285.407H204.078L204.078 318.221ZM234.162 285.407V318.221H263.493V285.407H234.162ZM264.245 285.407V318.221L293.576 318.221V285.407H264.245ZM294.328 285.407V318.221H323.659V285.407H294.328ZM324.412 285.407V318.221H353.743V285.407H324.412ZM354.495 285.407V318.221H383.826V285.407H354.495ZM384.578 285.407V318.221H413.909V285.407H384.578ZM414.662 285.407V318.221H443.993V285.407L414.662 285.407ZM444.745 285.407V318.221H474.076V285.407H444.745ZM474.828 285.407V318.221H504.159V285.407H474.828ZM504.912 285.407V318.221H534.243V285.407H504.912ZM534.995 285.407V318.221L564.326 318.221V285.407L534.995 285.407ZM565.078 285.407V318.221H594.409V285.407H565.078ZM595.162 285.407V318.221H624.493V285.407H595.162ZM625.245 285.407V318.221H654.576V285.407H625.245ZM655.328 285.407V318.221H684.659V285.407H655.328ZM685.412 285.407V318.221H714.743V285.407H685.412ZM715.495 285.407V318.221H744.826V285.407H715.495ZM745.578 285.407V318.221H774.909V285.407H745.578ZM775.662 285.407V318.221H804.993V285.407L775.662 285.407ZM805.745 285.407V318.221L835.076 318.221V285.407H805.745ZM835.828 285.407V318.221H865.159V285.407H835.828ZM865.911 285.407V318.221H895.243V285.407H865.911ZM895.995 285.407V318.221H925.326V285.407L895.995 285.407ZM926.078 285.407V318.221H955.409V285.407H926.078ZM956.162 285.407V318.221H985.493V285.407H956.162ZM986.245 285.407V318.221H1015.58V285.407H986.245ZM1016.33 285.407V318.221H1045.66V285.407L1016.33 285.407ZM1046.41 285.407V318.221H1075.74V285.407H1046.41ZM1076.49 285.407V318.221L1105.83 318.222V285.407H1076.49ZM1105.83 319.063L1076.49 319.063V351.877L1105.83 351.877V319.063ZM1105.83 352.719L1076.49 352.719V385.533L1105.83 385.533V352.719ZM1105.83 386.374L1076.49 386.374V419.189H1105.83V386.374ZM1105.83 420.03H1076.49V452.844H1105.83V420.03ZM1105.83 453.686H1076.49V486.5H1105.83V453.686ZM1105.83 487.341H1076.49V520.155H1105.83V487.341ZM1105.83 520.997H1076.49V553.811H1105.83V520.997ZM1105.83 554.653H1076.49V587.467H1105.83V554.653ZM1105.83 588.308H1076.49V621.122H1105.83V588.308ZM1105.83 621.964H1076.49V654.778H1105.83V621.964ZM1105.83 655.62H1076.49V688.434H1105.83V655.62ZM1105.83 689.275H1076.49V722.09H1105.83V689.275ZM1105.83 722.931H1076.49V755.745H1105.83V722.931ZM1105.83 756.587H1076.49V789.401H1105.83V756.587ZM1105.83 790.242H1076.49V823.057H1105.83V790.242ZM1105.83 823.898H1076.49V856.712H1105.83V823.898ZM1075.74 856.712V823.898H1046.41V856.712H1075.74ZM1045.66 856.712V823.898H1016.33V856.712H1045.66ZM1015.58 856.712V823.898H986.245V856.712H1015.58ZM985.493 856.712V823.898H956.162V856.712H985.493ZM955.409 856.712V823.898H926.078V856.712H955.409ZM925.326 856.712V823.898H895.995V856.712H925.326ZM895.243 856.712V823.898H865.911V856.712H895.243ZM865.159 856.712V823.898H835.828V856.712H865.159ZM835.076 856.712V823.898H805.745V856.712H835.076ZM804.993 856.712V823.898H775.662V856.712H804.993ZM774.909 856.712V823.898H745.578V856.712H774.909ZM744.826 856.712V823.898H715.495V856.712H744.826ZM714.743 856.712V823.898H685.412V856.712H714.743ZM684.659 856.712V823.898L655.328 823.898V856.712L684.659 856.712ZM654.576 856.712V823.898H625.245V856.712H654.576ZM624.493 856.712V823.898H595.162V856.712H624.493ZM594.409 856.712V823.898H565.078V856.712H594.409ZM564.326 856.712V823.898H534.995V856.712H564.326ZM534.243 856.712V823.898H504.911V856.712H534.243ZM504.159 856.712V823.898H474.828V856.712H504.159ZM474.076 856.712V823.898H444.745V856.712H474.076ZM443.993 856.712V823.898H414.662V856.712H443.993ZM413.909 856.712V823.898H384.578V856.712H413.909ZM383.826 856.712V823.898H354.495V856.712H383.826ZM353.743 856.712V823.898H324.412V856.712H353.743ZM323.659 856.712V823.898H294.328V856.712H323.659ZM293.576 856.712V823.898H264.245V856.712H293.576ZM263.493 856.712V823.898H234.162V856.712H263.493ZM234.162 823.056H263.493V790.242H234.162V823.056ZM234.162 789.401H263.493L263.493 756.587H234.162L234.162 789.401ZM234.162 755.745H263.493V722.931H234.162V755.745ZM234.162 722.089H263.493V689.275H234.162V722.089ZM234.162 688.434H263.493V655.62H234.162V688.434ZM234.162 654.778H263.493V621.964H234.162V654.778ZM234.162 621.122H263.493V588.308H234.162V621.122ZM234.162 587.467H263.493V554.653H234.162V587.467ZM234.162 553.811H263.493V520.997H234.162V553.811ZM234.162 520.155H263.493V487.341H234.162V520.155ZM234.162 486.5H263.493V453.686H234.162V486.5ZM234.162 452.844H263.493V420.03H234.162V452.844ZM234.162 419.188H263.493V386.374H234.162V419.188ZM234.162 385.533H263.493L263.493 352.719H234.162L234.162 385.533ZM234.162 351.877H263.493V319.063H234.162V351.877ZM264.245 319.063V351.877L293.576 351.877V319.063L264.245 319.063ZM294.328 319.063V351.877H323.659V319.063H294.328ZM324.412 319.063V351.877H353.743V319.063H324.412ZM354.495 319.063V351.877H383.826V319.063H354.495ZM384.578 319.063V351.877H413.909V319.063H384.578ZM414.662 319.063V351.877H443.993V319.063H414.662ZM444.745 319.063V351.877H474.076V319.063H444.745ZM474.828 319.063V351.877H504.159V319.063H474.828ZM504.912 319.063V351.877H534.243V319.063H504.912ZM534.995 319.063V351.877L564.326 351.877V319.063L534.995 319.063ZM565.078 319.063V351.877H594.409V319.063H565.078ZM595.162 319.063V351.877H624.493V319.063H595.162ZM625.245 319.063V351.877H654.576V319.063H625.245ZM655.328 319.063V351.877H684.659V319.063H655.328ZM685.412 319.063V351.877H714.743V319.063H685.412ZM715.495 319.063V351.877H744.826V319.063H715.495ZM745.578 319.063V351.877H774.909V319.063H745.578ZM775.662 319.063V351.877H804.993V319.063H775.662ZM805.745 319.063V351.877L835.076 351.877V319.063L805.745 319.063ZM835.828 319.063V351.877H865.159V319.063H835.828ZM865.911 319.063V351.877H895.243V319.063H865.911ZM895.995 319.063V351.877H925.326V319.063H895.995ZM926.078 319.063V351.877H955.409V319.063H926.078ZM956.162 319.063V351.877H985.493V319.063H956.162ZM986.245 319.063V351.877H1015.58V319.063H986.245ZM1016.33 319.063V351.877H1045.66V319.063H1016.33ZM1046.41 319.063V351.877H1075.74V319.063H1046.41ZM1075.74 352.719H1046.41V385.533H1075.74V352.719ZM1075.74 386.374H1046.41V419.189H1075.74V386.374ZM1075.74 420.03H1046.41V452.844H1075.74V420.03ZM1075.74 453.686H1046.41V486.5H1075.74V453.686ZM1075.74 487.341H1046.41V520.155H1075.74V487.341ZM1075.74 520.997H1046.41V553.811H1075.74V520.997ZM1075.74 554.653H1046.41V587.467H1075.74V554.653ZM1075.74 588.308H1046.41V621.122H1075.74V588.308ZM1075.74 621.964H1046.41V654.778H1075.74V621.964ZM1075.74 655.62H1046.41V688.434H1075.74V655.62ZM1075.74 689.275H1046.41V722.09H1075.74V689.275ZM1075.74 722.931H1046.41V755.745H1075.74V722.931ZM1075.74 756.587H1046.41V789.401H1075.74V756.587ZM1075.74 790.242H1046.41V823.057H1075.74V790.242ZM1045.66 823.057V790.242H1016.33V823.057H1045.66ZM1015.58 823.057V790.242H986.245V823.057H1015.58ZM985.493 823.057V790.242H956.162V823.057H985.493ZM955.409 823.057V790.242H926.078V823.057H955.409ZM925.326 823.057V790.242H895.995V823.057H925.326ZM895.243 823.057V790.242H865.911V823.057H895.243ZM865.159 823.057V790.242H835.828V823.057H865.159ZM835.076 823.057V790.242H805.745V823.057H835.076ZM804.993 823.057V790.242H775.662V823.057H804.993ZM774.909 823.057V790.242H745.578V823.057H774.909ZM744.826 823.057V790.242H715.495V823.057H744.826ZM714.743 823.057V790.242H685.412V823.057H714.743ZM684.659 823.057V790.242L655.328 790.242V823.056L684.659 823.057ZM654.576 823.056V790.242H625.245V823.056H654.576ZM624.493 823.056V790.242H595.162V823.056H624.493ZM594.409 823.056V790.242H565.078V823.056H594.409ZM564.326 823.056V790.242H534.995V823.056H564.326ZM534.243 823.056V790.242H504.911V823.056H534.243ZM504.159 823.056V790.242H474.828V823.056H504.159ZM474.076 823.056V790.242H444.745V823.056H474.076ZM443.993 823.056V790.242H414.662V823.056H443.993ZM413.909 823.056V790.242H384.578V823.056H413.909ZM383.826 823.056V790.242H354.495V823.056H383.826ZM353.743 823.056V790.242H324.412V823.056H353.743ZM323.659 823.056V790.242H294.328V823.056H323.659ZM293.576 823.056V790.242H264.245V823.056H293.576ZM264.245 789.401H293.576L293.576 756.587H264.245L264.245 789.401ZM264.245 755.745H293.576V722.931H264.245V755.745ZM264.245 722.089H293.576V689.275H264.245V722.089ZM264.245 688.434H293.576V655.62H264.245V688.434ZM264.245 654.778H293.576V621.964H264.245V654.778ZM264.245 621.122H293.576V588.308H264.245V621.122ZM264.245 587.467H293.576V554.653H264.245V587.467ZM264.245 553.811H293.576V520.997H264.245V553.811ZM264.245 520.155H293.576V487.341H264.245V520.155ZM264.245 486.5H293.576V453.686H264.245V486.5ZM264.245 452.844H293.576V420.03H264.245V452.844ZM264.245 419.188H293.576V386.374L264.245 386.374V419.188ZM264.245 385.533L293.576 385.533L293.576 352.719L264.245 352.719L264.245 385.533ZM294.328 352.719V385.533H323.659V352.719H294.328ZM324.412 352.719V385.533H353.743V352.719H324.412ZM354.495 352.719V385.533H383.826V352.719H354.495ZM384.578 352.719V385.533H413.909V352.719H384.578ZM414.662 352.719V385.533H443.993V352.719H414.662ZM444.745 352.719V385.533H474.076V352.719H444.745ZM474.828 352.719V385.533H504.159V352.719H474.828ZM504.912 352.719V385.533H534.243V352.719H504.912ZM534.995 352.719V385.533L564.326 385.533V352.719L534.995 352.719ZM565.078 352.719V385.533H594.409V352.719H565.078ZM595.162 352.719V385.533H624.493V352.719H595.162ZM625.245 352.719V385.533H654.576V352.719H625.245ZM655.328 352.719V385.533H684.659V352.719H655.328ZM685.412 352.719V385.533H714.743V352.719H685.412ZM715.495 352.719V385.533H744.826V352.719H715.495ZM745.578 352.719V385.533H774.909V352.719H745.578ZM775.662 352.719V385.533H804.993V352.719H775.662ZM805.745 352.719V385.533H835.076V352.719L805.745 352.719ZM835.828 352.719V385.533H865.159V352.719H835.828ZM865.911 352.719V385.533H895.243V352.719H865.911ZM895.995 352.719V385.533H925.326V352.719H895.995ZM926.078 352.719V385.533H955.409V352.719H926.078ZM956.162 352.719V385.533H985.493V352.719H956.162ZM986.245 352.719V385.533H1015.58V352.719H986.245ZM1016.33 352.719V385.533H1045.66V352.719H1016.33ZM1045.66 386.374H1016.33V419.189H1045.66V386.374ZM1045.66 420.03H1016.33V452.844H1045.66V420.03ZM1045.66 453.686H1016.33V486.5H1045.66V453.686ZM1045.66 487.341H1016.33V520.155H1045.66V487.341ZM1045.66 520.997H1016.33V553.811H1045.66V520.997ZM1045.66 554.653H1016.33V587.467H1045.66V554.653ZM1045.66 588.308H1016.33V621.122H1045.66V588.308ZM1045.66 621.964H1016.33V654.778H1045.66V621.964ZM1045.66 655.62H1016.33V688.434H1045.66V655.62ZM1045.66 689.275H1016.33V722.09H1045.66V689.275ZM1045.66 722.931H1016.33V755.745H1045.66V722.931ZM1045.66 756.587H1016.33V789.401H1045.66V756.587ZM1015.58 789.401V756.587H986.245V789.401H1015.58ZM985.493 789.401V756.587H956.162V789.401H985.493ZM955.409 789.401V756.587H926.078V789.401H955.409ZM925.326 789.401V756.587H895.995V789.401H925.326ZM895.243 789.401V756.587H865.911V789.401H895.243ZM865.159 789.401V756.587H835.828V789.401H865.159ZM835.076 789.401V756.587H805.745V789.401H835.076ZM804.993 789.401V756.587H775.662V789.401H804.993ZM774.909 789.401V756.587H745.578V789.401H774.909ZM744.826 789.401V756.587H715.495V789.401H744.826ZM714.743 789.401V756.587H685.412V789.401H714.743ZM684.659 789.401V756.587L655.328 756.587V789.401L684.659 789.401ZM654.576 789.401V756.587H625.245V789.401H654.576ZM624.493 789.401V756.587H595.162V789.401H624.493ZM594.409 789.401V756.587H565.078V789.401H594.409ZM564.326 789.401V756.587H534.995V789.401H564.326ZM534.243 789.401V756.587H504.911V789.401H534.243ZM504.159 789.401V756.587H474.828V789.401H504.159ZM474.076 789.401V756.587H444.745V789.401H474.076ZM443.993 789.401V756.587H414.662V789.401H443.993ZM413.909 789.401V756.587H384.578V789.401H413.909ZM383.826 789.401V756.587H354.495V789.401H383.826ZM353.743 789.401V756.587H324.412V789.401H353.743ZM323.659 789.401L323.659 756.587H294.328L294.328 789.401H323.659ZM294.328 755.745H323.659V722.931H294.328V755.745ZM294.328 722.089H323.659V689.275H294.328V722.089ZM294.328 688.434H323.659V655.62H294.328V688.434ZM294.328 654.778H323.659V621.964H294.328V654.778ZM294.328 621.122H323.659V588.308H294.328V621.122ZM294.328 587.467H323.659V554.653H294.328V587.467ZM294.328 553.811H323.659V520.997H294.328V553.811ZM294.328 520.155H323.659V487.341H294.328V520.155ZM294.328 486.5H323.659V453.686H294.328V486.5ZM294.328 452.844H323.659V420.03H294.328V452.844ZM294.328 419.188H323.659V386.374H294.328V419.188ZM324.412 386.374V419.188H353.743V386.374H324.412ZM354.495 386.374V419.188H383.826V386.374H354.495ZM384.578 386.374V419.188L413.909 419.188V386.374H384.578ZM414.662 386.374V419.188H443.993V386.374H414.662ZM444.745 386.374V419.188H474.076V386.374H444.745ZM474.828 386.374V419.188H504.159V386.374H474.828ZM504.912 386.374V419.188H534.243V386.374H504.912ZM534.995 386.374V419.188H564.326V386.374L534.995 386.374ZM565.078 386.374V419.188H594.409V386.374H565.078ZM595.162 386.374V419.188H624.493V386.374H595.162ZM625.245 386.374V419.188H654.576V386.374H625.245ZM655.328 386.374V419.188H684.659V386.374H655.328ZM685.412 386.374V419.188H714.743V386.374H685.412ZM715.495 386.374V419.188H744.826V386.374H715.495ZM745.578 386.374V419.188H774.909V386.374H745.578ZM775.662 386.374V419.188H804.993V386.374H775.662ZM805.745 386.374V419.188H835.076V386.374H805.745ZM835.828 386.374V419.188H865.159V386.374H835.828ZM865.911 386.374V419.188H895.243V386.374H865.911ZM895.995 386.374V419.188H925.326V386.374H895.995ZM926.078 386.374V419.188L955.409 419.189V386.374H926.078ZM956.162 386.374V419.189H985.493V386.374H956.162ZM986.245 386.374V419.189H1015.58V386.374H986.245ZM1015.58 420.03H986.245V452.844H1015.58V420.03ZM1015.58 453.686H986.245V486.5H1015.58V453.686ZM1015.58 487.341H986.245V520.155H1015.58V487.341ZM1015.58 520.997H986.245V553.811H1015.58V520.997ZM1015.58 554.653H986.245V587.467H1015.58V554.653ZM1015.58 588.308H986.245V621.122H1015.58V588.308ZM1015.58 621.964H986.245V654.778H1015.58V621.964ZM1015.58 655.62H986.245V688.434H1015.58V655.62ZM1015.58 689.275H986.245V722.09H1015.58V689.275ZM1015.58 722.931H986.245V755.745H1015.58V722.931ZM985.493 755.745V722.931H956.162V755.745H985.493ZM955.409 755.745V722.931H926.078V755.745H955.409ZM925.326 755.745V722.931H895.995V755.745H925.326ZM895.243 755.745V722.931H865.911V755.745H895.243ZM865.159 755.745V722.931H835.828V755.745H865.159ZM835.076 755.745V722.931H805.745V755.745H835.076ZM804.993 755.745V722.931H775.662V755.745H804.993ZM774.909 755.745V722.931H745.578V755.745H774.909ZM744.826 755.745V722.931H715.495V755.745H744.826ZM714.743 755.745V722.931H685.412V755.745H714.743ZM684.659 755.745V722.931L655.328 722.931V755.745L684.659 755.745ZM654.576 755.745V722.931H625.245V755.745H654.576ZM624.493 755.745V722.931H595.162V755.745H624.493ZM594.409 755.745V722.931H565.078V755.745H594.409ZM564.326 755.745V722.931H534.995V755.745H564.326ZM534.243 755.745V722.931H504.911V755.745H534.243ZM504.159 755.745V722.931H474.828V755.745H504.159ZM474.076 755.745V722.931H444.745V755.745H474.076ZM443.993 755.745V722.931H414.662V755.745H443.993ZM413.909 755.745V722.931H384.578V755.745H413.909ZM383.826 755.745V722.931H354.495V755.745H383.826ZM353.743 755.745V722.931H324.412V755.745H353.743ZM324.412 722.089H353.743V689.275H324.412V722.089ZM324.412 688.434H353.743V655.62H324.412V688.434ZM324.412 654.778H353.743V621.964H324.412V654.778ZM324.412 621.122H353.743V588.308H324.412V621.122ZM324.412 587.467H353.743L353.743 554.653H324.412L324.412 587.467ZM324.412 553.811H353.743V520.997H324.412V553.811ZM324.412 520.155H353.743V487.341H324.412V520.155ZM324.412 486.5H353.743V453.686H324.412V486.5ZM324.412 452.844H353.743V420.03H324.412V452.844ZM354.495 420.03V452.844H383.826V420.03H354.495ZM384.578 420.03V452.844L413.909 452.844V420.03L384.578 420.03ZM414.662 420.03V452.844H443.993V420.03H414.662ZM444.745 420.03V452.844H474.076V420.03H444.745ZM474.828 420.03V452.844H504.159V420.03H474.828ZM504.912 420.03V452.844H534.243V420.03H504.912ZM534.995 420.03V452.844H564.326V420.03H534.995ZM565.078 420.03V452.844H594.409V420.03H565.078ZM595.162 420.03V452.844H624.493V420.03H595.162ZM625.245 420.03V452.844H654.576V420.03H625.245ZM655.328 420.03V452.844H684.659V420.03H655.328ZM685.412 420.03V452.844H714.743V420.03H685.412ZM715.495 420.03V452.844H744.826V420.03H715.495ZM745.578 420.03V452.844H774.909V420.03H745.578ZM775.662 420.03V452.844H804.993V420.03H775.662ZM805.745 420.03V452.844H835.076V420.03H805.745ZM835.828 420.03V452.844H865.159V420.03H835.828ZM865.911 420.03V452.844H895.243V420.03H865.911ZM895.995 420.03V452.844H925.326V420.03H895.995ZM926.078 420.03V452.844L955.409 452.844V420.03L926.078 420.03ZM956.162 420.03V452.844H985.493V420.03H956.162ZM985.493 453.686H956.162V486.5H985.493V453.686ZM985.493 487.341H956.162V520.155H985.493V487.341ZM985.493 520.997H956.162V553.811H985.493V520.997ZM985.493 554.653H956.162V587.467H985.493V554.653ZM985.493 588.308H956.162V621.122H985.493V588.308ZM985.493 621.964H956.162V654.778H985.493V621.964ZM985.493 655.62H956.162V688.434H985.493V655.62ZM985.493 689.275H956.162V722.09H985.493V689.275ZM955.409 722.09V689.275H926.078V722.09H955.409ZM925.326 722.09V689.275H895.995V722.09H925.326ZM895.243 722.09V689.275H865.911V722.09H895.243ZM865.159 722.09V689.275H835.828V722.09H865.159ZM835.076 722.09V689.275H805.745V722.09H835.076ZM804.993 722.09V689.275H775.662V722.09H804.993ZM774.909 722.09V689.275H745.578V722.09H774.909ZM744.826 722.09V689.275H715.495V722.09H744.826ZM714.743 722.09V689.275H685.412V722.09H714.743ZM684.659 722.09V689.275L655.328 689.275V722.089L684.659 722.09ZM654.576 722.089V689.275H625.245V722.089H654.576ZM624.493 722.089V689.275H595.162V722.089H624.493ZM594.409 722.089V689.275H565.078V722.089H594.409ZM564.326 722.089V689.275H534.995V722.089H564.326ZM534.243 722.089V689.275H504.911V722.089H534.243ZM504.159 722.089V689.275H474.828V722.089H504.159ZM474.076 722.089V689.275H444.745V722.089H474.076ZM443.993 722.089V689.275H414.662V722.089H443.993ZM413.909 722.089V689.275H384.578V722.089H413.909ZM383.826 722.089V689.275H354.495V722.089H383.826ZM354.495 688.434H383.826V655.62H354.495V688.434ZM354.495 654.778H383.826V621.964H354.495V654.778ZM354.495 621.122H383.826V588.308H354.495V621.122ZM354.495 587.467H383.826L383.826 554.653H354.495L354.495 587.467ZM354.495 553.811H383.826V520.997H354.495V553.811ZM354.495 520.155H383.826V487.341H354.495V520.155ZM354.495 486.5H383.826V453.686H354.495V486.5ZM384.578 453.686V486.5L413.909 486.5V453.686L384.578 453.686ZM414.662 453.686V486.5H443.993V453.686H414.662ZM444.745 453.686V486.5H474.076V453.686H444.745ZM474.828 453.686V486.5H504.159V453.686H474.828ZM504.912 453.686V486.5H534.243V453.686H504.912ZM534.995 453.686V486.5H564.326V453.686H534.995ZM565.078 453.686V486.5H594.409V453.686H565.078ZM595.162 453.686V486.5H624.493V453.686H595.162ZM625.245 453.686V486.5H654.576V453.686H625.245ZM655.328 453.686V486.5H684.659V453.686H655.328ZM685.412 453.686V486.5H714.743V453.686H685.412ZM715.495 453.686V486.5H744.826V453.686H715.495ZM745.578 453.686V486.5H774.909V453.686H745.578ZM775.662 453.686V486.5H804.993V453.686H775.662ZM805.745 453.686V486.5H835.076V453.686H805.745ZM835.828 453.686V486.5H865.159V453.686H835.828ZM865.911 453.686V486.5H895.243V453.686H865.911ZM895.995 453.686V486.5H925.326V453.686H895.995ZM926.078 453.686V486.5L955.409 486.5V453.686L926.078 453.686ZM955.409 487.341L926.078 487.341V520.155H955.409V487.341ZM955.409 520.997H926.078V553.811L955.409 553.811V520.997ZM955.409 554.653L926.078 554.653V587.467H955.409V554.653ZM955.409 588.308L926.078 588.308V621.122L955.409 621.122V588.308ZM955.409 621.964H926.078V654.778H955.409V621.964ZM955.409 655.62H926.078V688.434H955.409V655.62ZM925.326 688.434V655.62H895.995V688.434H925.326ZM895.243 688.434V655.62H865.911V688.434H895.243ZM865.159 688.434V655.62H835.828V688.434H865.159ZM835.076 688.434V655.62H805.745V688.434H835.076ZM804.993 688.434V655.62H775.662V688.434H804.993ZM774.909 688.434V655.62H745.578V688.434H774.909ZM744.826 688.434V655.62H715.495V688.434H744.826ZM714.743 688.434V655.62H685.412V688.434H714.743ZM684.659 688.434V655.62L655.328 655.62V688.434L684.659 688.434ZM654.576 688.434V655.62H625.245V688.434H654.576ZM624.493 688.434V655.62H595.162V688.434H624.493ZM594.409 688.434V655.62H565.078V688.434H594.409ZM564.326 688.434V655.62H534.995V688.434H564.326ZM534.243 688.434V655.62H504.911V688.434H534.243ZM504.159 688.434V655.62H474.828V688.434H504.159ZM474.076 688.434V655.62H444.745V688.434H474.076ZM443.993 688.434V655.62H414.662V688.434H443.993ZM413.909 688.434V655.62H384.578V688.434H413.909ZM384.578 654.778H413.909V621.964L384.578 621.964V654.778ZM384.578 621.122H413.909V588.308L384.578 588.308V621.122ZM384.578 587.467L413.909 587.467L413.909 554.653L384.578 554.653L384.578 587.467ZM384.578 553.811H413.909V520.997L384.578 520.997V553.811ZM384.578 520.155L413.909 520.155V487.341L384.578 487.341V520.155ZM414.662 487.341V520.155H443.993V487.341H414.662ZM444.745 487.341V520.155H474.076V487.341H444.745ZM474.828 487.341V520.155H504.159V487.341H474.828ZM504.912 487.341V520.155H534.243V487.341H504.912ZM534.995 487.341V520.155H564.326V487.341H534.995ZM565.078 487.341V520.155H594.409V487.341H565.078ZM595.162 487.341V520.155H624.493V487.341H595.162ZM625.245 487.341V520.155H654.576V487.341H625.245ZM655.328 487.341V520.155H684.659V487.341H655.328ZM685.412 487.341V520.155H714.743V487.341H685.412ZM715.495 487.341V520.155H744.826V487.341H715.495ZM745.578 487.341V520.155H774.909V487.341H745.578ZM775.662 487.341V520.155H804.993V487.341H775.662ZM805.745 487.341V520.155H835.076V487.341H805.745ZM835.828 487.341V520.155H865.159V487.341H835.828ZM865.911 487.341V520.155H895.243V487.341H865.911ZM895.995 487.341V520.155H925.326V487.341H895.995ZM925.326 520.997H895.995V553.811H925.326V520.997ZM925.326 554.653H895.995V587.467H925.326V554.653ZM925.326 588.308H895.995V621.122H925.326V588.308ZM925.326 621.964H895.995V654.778H925.326V621.964ZM895.243 654.778V621.964H865.911V654.778H895.243ZM865.159 654.778V621.964H835.828V654.778H865.159ZM835.076 654.778V621.964H805.745V654.778H835.076ZM804.993 654.778V621.964H775.662V654.778H804.993ZM774.909 654.778V621.964H745.578V654.778H774.909ZM744.826 654.778V621.964H715.495V654.778H744.826ZM714.743 654.778V621.964H685.412V654.778H714.743ZM684.659 654.778V621.964H655.328V654.778L684.659 654.778ZM654.576 654.778V621.964H625.245V654.778H654.576ZM624.493 654.778V621.964H595.162V654.778H624.493ZM594.409 654.778V621.964H565.078V654.778H594.409ZM564.326 654.778V621.964H534.995V654.778H564.326ZM534.243 654.778V621.964H504.911V654.778H534.243ZM504.159 654.778V621.964H474.828V654.778H504.159ZM474.076 654.778V621.964H444.745V654.778H474.076ZM443.993 654.778V621.964H414.662V654.778H443.993ZM414.662 621.122H443.993V588.308H414.662V621.122ZM414.662 587.467H443.993L443.993 554.653H414.662L414.662 587.467ZM414.662 553.811H443.993V520.997H414.662V553.811ZM444.745 520.997V553.811H474.076V520.997H444.745ZM474.828 520.997V553.811H504.159V520.997H474.828ZM504.912 520.997V553.811H534.243V520.997H504.912ZM534.995 520.997V553.811H564.326V520.997H534.995ZM565.078 520.997V553.811H594.409V520.997H565.078ZM595.162 520.997V553.811H624.493V520.997H595.162ZM625.245 520.997V553.811H654.576V520.997H625.245ZM655.328 520.997V553.811H684.659V520.997H655.328ZM685.412 520.997V553.811H714.743V520.997H685.412ZM715.495 520.997V553.811H744.826V520.997H715.495ZM745.578 520.997V553.811H774.909V520.997H745.578ZM775.662 520.997V553.811H804.993V520.997H775.662ZM805.745 520.997V553.811H835.076V520.997H805.745ZM835.828 520.997V553.811H865.159V520.997H835.828ZM865.911 520.997V553.811H895.243V520.997H865.911ZM895.243 554.653H865.911V587.467H895.243V554.653ZM895.243 588.308H865.911V621.122H895.243V588.308ZM865.159 621.122V588.308H835.828V621.122H865.159ZM835.076 621.122V588.308H805.745V621.122H835.076ZM804.993 621.122V588.308H775.662V621.122H804.993ZM774.909 621.122V588.308H745.578V621.122H774.909ZM744.826 621.122V588.308H715.495V621.122H744.826ZM714.743 621.122V588.308H685.412V621.122H714.743ZM684.659 621.122V588.308H655.328V621.122H684.659ZM654.576 621.122V588.308H625.245V621.122H654.576ZM624.493 621.122V588.308H595.162V621.122H624.493ZM594.409 621.122V588.308H565.078V621.122H594.409ZM564.326 621.122V588.308H534.995V621.122H564.326ZM534.243 621.122V588.308H504.911V621.122H534.243ZM504.159 621.122V588.308H474.828V621.122H504.159ZM474.076 621.122V588.308H444.745V621.122H474.076ZM444.745 587.467H474.076L474.076 554.653H444.745V587.467ZM474.828 554.653V587.467H504.159V554.653H474.828ZM504.912 554.653L504.911 587.467H534.243V554.653H504.912ZM534.995 554.653V587.467H564.326V554.653H534.995ZM565.078 554.653V587.467H594.409V554.653H565.078ZM595.162 554.653V587.467H624.493V554.653H595.162ZM625.245 554.653V587.467H654.576V554.653H625.245ZM655.328 554.653V587.467H684.659V554.653H655.328ZM685.412 554.653V587.467H714.743V554.653H685.412ZM715.495 554.653V587.467H744.826V554.653H715.495ZM745.578 554.653V587.467H774.909V554.653H745.578ZM775.662 554.653V587.467H804.993V554.653H775.662ZM805.745 554.653V587.467H835.076V554.653H805.745ZM835.828 554.653V587.467H865.159V554.653H835.828Z" fill="url(#paint0_radial_0_9)"/>
<g id="Ellipse 2" opacity="0.2" filter="url(#filter1_f_0_9)">
<ellipse cx="886.312" cy="463.189" rx="178.476" ry="159.658" fill="var(--fill-0, #A5C4D6)"/>
</g>
</g>
<defs>
<filter id="filter0_f_0_9" x="0" y="92.2695" width="1217.77" height="1016.22" filterUnits="userSpaceOnUse" color-interpolation-filters="sRGB">
<feFlood flood-opacity="0" result="BackgroundImageFix"/>
<feBlend mode="normal" in="SourceGraphic" in2="BackgroundImageFix" result="shape"/>
<feGaussianBlur stdDeviation="151.766" result="effect1_foregroundBlur_0_9"/>
</filter>
<filter id="filter1_f_0_9" x="404.304" y="0" width="964.016" height="926.378" filterUnits="userSpaceOnUse" color-interpolation-filters="sRGB">
<feFlood flood-opacity="0" result="BackgroundImageFix"/>
<feBlend mode="normal" in="SourceGraphic" in2="BackgroundImageFix" result="shape"/>
<feGaussianBlur stdDeviation="151.766" result="effect1_foregroundBlur_0_9"/>
</filter>
<radialGradient id="paint0_radial_0_9" cx="0" cy="0" r="1" gradientUnits="userSpaceOnUse" gradientTransform="translate(672.626 570.639) rotate(90) scale(344.812 500.932)">
<stop stop-color="white"/>
<stop offset="1" stop-color="white" stop-opacity="0"/>
</radialGradient>
</defs>
</svg>
