<svg preserveAspectRatio="none" width="100%" height="100%" overflow="visible" style="display: block;" viewBox="0 0 18 18" fill="none" xmlns="http://www.w3.org/2000/svg">
<g id="Icon Container">
<rect width="18" height="18" rx="9" fill="var(--fill-0, #A90831)"/>
<path id="Vector" d="M12.0837 6.01029C12.2175 5.85354 12.4093 5.75352 12.6181 5.73153C12.8269 5.70954 13.0364 5.76733 13.2018 5.89258C13.2831 5.9535 13.3509 6.02958 13.4013 6.11631C13.4517 6.20304 13.4836 6.29866 13.4951 6.39753C13.5067 6.4964 13.4976 6.59651 13.4685 6.69193C13.4394 6.78736 13.3909 6.87617 13.3257 6.95312L9.09199 11.9888C9.02114 12.072 8.93322 12.1401 8.83379 12.1887C8.73436 12.2373 8.6256 12.2654 8.51437 12.2713C8.40314 12.2771 8.29187 12.2605 8.1876 12.2226C8.08332 12.1847 7.98831 12.1262 7.90858 12.0509L4.73329 9.0317L4.67812 8.97502C4.42365 8.67855 4.44166 8.24147 4.73329 7.96461C5.02493 7.68776 5.48545 7.67032 5.79735 7.9123L5.85703 7.96461L8.41302 10.3844L12.095 6.01356L12.0837 6.01029Z" fill="var(--fill-0, white)"/>
</g>
</svg>
