<svg preserveAspectRatio="none" width="100%" height="100%" overflow="visible" style="display: block;" viewBox="0 0 20 11" fill="none" xmlns="http://www.w3.org/2000/svg">
<g id="Button Icon" clip-path="url(#clip0_0_4)">
<path id="Vector" d="M15.412 10.7647L19.7688 6.04682C19.8363 5.98122 19.891 5.90188 19.9296 5.81343C19.9683 5.72498 19.9902 5.62917 19.9941 5.53156C19.9979 5.43395 19.9837 5.3365 19.9521 5.24485C19.9206 5.1532 19.8724 5.06919 19.8103 4.99769L19.7688 4.94682L15.412 0.23526C15.2822 0.101104 15.1126 0.0200022 14.9329 0.00606162C14.7531 -0.007879 14.5744 0.0462241 14.428 0.15896C14.3508 0.21239 14.2844 0.281717 14.2324 0.362918C14.1805 0.44412 14.1441 0.53558 14.1253 0.631992C14.1066 0.728405 14.1058 0.827852 14.1232 0.924563C14.1406 1.02127 14.1757 1.11332 14.2264 1.19538C14.2611 1.24648 14.3009 1.29338 14.345 1.33526L17.4926 4.71156H0.729105C0.535191 4.71324 0.349752 4.79705 0.213186 4.94473C0.0766202 5.09241 -6.30611e-06 5.29199 0 5.5C-3.18105e-06 5.60324 0.0190503 5.70546 0.0560614 5.80077C0.0930724 5.89607 0.147309 5.98257 0.215641 6.05528C0.283974 6.12798 0.365051 6.18546 0.454195 6.22438C0.54334 6.26331 0.638788 6.28292 0.735033 6.28208H17.5104L14.3568 9.66474C14.2879 9.72959 14.2317 9.80845 14.1914 9.89676C14.1511 9.98507 14.1275 10.0811 14.122 10.1792C14.1164 10.2774 14.1291 10.3757 14.1593 10.4686C14.1894 10.5614 14.2364 10.647 14.2976 10.7202C14.3353 10.7671 14.3793 10.8078 14.428 10.841C14.5744 10.9538 14.7531 11.0079 14.9329 10.9939C15.1126 10.98 15.2822 10.8989 15.412 10.7647Z" fill="var(--fill-0, white)"/>
</g>
<defs>
<clipPath id="clip0_0_4">
<rect width="20" height="11" fill="white"/>
</clipPath>
</defs>
</svg>
