<svg preserveAspectRatio="none" width="100%" height="100%" overflow="visible" style="display: block;" viewBox="0 0 35.75 35.75" fill="none" xmlns="http://www.w3.org/2000/svg">
<path id="Vector" d="M17.875 0C14.3397 0 10.8837 1.04835 7.94419 3.01248C5.00466 4.97661 2.71358 7.7683 1.36066 11.0345C0.00774495 14.3008 -0.34624 17.8948 0.343471 21.3622C1.03318 24.8297 2.73561 28.0147 5.23547 30.5145C7.73534 33.0144 10.9204 34.7168 14.3878 35.4065C17.8552 36.0962 21.4492 35.7423 24.7155 34.3893C27.9817 33.0364 30.7734 30.7453 32.7375 27.8058C34.7017 24.8663 35.75 21.4103 35.75 17.875C35.745 13.1358 33.8601 8.59212 30.509 5.24099C27.1579 1.88987 22.6142 0.00500469 17.875 0ZM8.60751 29.8203C9.60221 28.2646 10.9725 26.9844 12.5921 26.0976C14.2117 25.2108 16.0285 24.746 17.875 24.746C19.7215 24.746 21.5383 25.2108 23.1579 26.0976C24.7775 26.9844 26.1478 28.2646 27.1425 29.8203C24.4928 31.8811 21.2318 32.9999 17.875 32.9999C14.5182 32.9999 11.2572 31.8811 8.60751 29.8203ZM12.375 16.5C12.375 15.4122 12.6976 14.3488 13.3019 13.4444C13.9063 12.5399 14.7653 11.8349 15.7702 11.4187C16.7752 11.0024 17.8811 10.8935 18.948 11.1057C20.0149 11.3179 20.9949 11.8417 21.7641 12.6109C22.5333 13.3801 23.0571 14.3601 23.2693 15.427C23.4815 16.4939 23.3726 17.5998 22.9563 18.6048C22.5401 19.6098 21.8351 20.4687 20.9306 21.0731C20.0262 21.6774 18.9628 22 17.875 22C16.4163 22 15.0174 21.4205 13.9859 20.3891C12.9545 19.3576 12.375 17.9587 12.375 16.5ZM29.1775 27.9142C27.644 25.692 25.4877 23.9728 22.9797 22.9728C24.3269 21.9117 25.3099 20.4572 25.7921 18.8115C26.2743 17.1659 26.2317 15.4108 25.6702 13.7905C25.1088 12.1701 24.0563 10.765 22.6592 9.77056C21.2621 8.7761 19.5899 8.24171 17.875 8.24171C16.1601 8.24171 14.4879 8.7761 13.0908 9.77056C11.6937 10.765 10.6413 12.1701 10.0798 13.7905C9.51828 15.4108 9.47567 17.1659 9.95788 18.8115C10.4401 20.4572 11.4231 21.9117 12.7703 22.9728C10.2624 23.9728 8.10603 25.692 6.57251 27.9142C4.63473 25.7351 3.36819 23.0423 2.9254 20.1601C2.4826 17.2778 2.88243 14.329 4.07674 11.6688C5.27105 9.00849 7.20891 6.75018 9.65698 5.16577C12.1051 3.58135 14.9589 2.73839 17.875 2.73839C20.7911 2.73839 23.645 3.58135 26.093 5.16577C28.5411 6.75018 30.479 9.00849 31.6733 11.6688C32.8676 14.329 33.2674 17.2778 32.8246 20.1601C32.3818 23.0423 31.1153 25.7351 29.1775 27.9142Z" fill="var(--fill-0, #A90831)"/>
</svg>
