<svg preserveAspectRatio="none" width="100%" height="100%" overflow="visible" style="display: block;" viewBox="0 0 35.75 33" fill="none" xmlns="http://www.w3.org/2000/svg">
<path id="Vector" d="M33 5.5H26.125V4.125C26.125 3.03098 25.6904 1.98177 24.9168 1.20818C24.1432 0.434597 23.094 0 22 0H13.75C12.656 0 11.6068 0.434597 10.8332 1.20818C10.0596 1.98177 9.625 3.03098 9.625 4.125V5.5H2.75C2.02065 5.5 1.32118 5.78973 0.805456 6.30546C0.289731 6.82118 0 7.52065 0 8.25V30.25C0 30.9793 0.289731 31.6788 0.805456 32.1945C1.32118 32.7103 2.02065 33 2.75 33H33C33.7293 33 34.4288 32.7103 34.9445 32.1945C35.4603 31.6788 35.75 30.9793 35.75 30.25V8.25C35.75 7.52065 35.4603 6.82118 34.9445 6.30546C34.4288 5.78973 33.7293 5.5 33 5.5ZM12.375 4.125C12.375 3.76033 12.5199 3.41059 12.7777 3.15273C13.0356 2.89487 13.3853 2.75 13.75 2.75H22C22.3647 2.75 22.7144 2.89487 22.9723 3.15273C23.2301 3.41059 23.375 3.76033 23.375 4.125V5.5H12.375V4.125ZM33 8.25V15.4017C28.359 17.9279 23.159 19.2509 17.875 19.25C12.5912 19.251 7.39135 17.9285 2.75 15.4034V8.25H33ZM33 30.25H2.75V18.5006C7.45925 20.8041 12.6326 22.001 17.875 22C23.1175 22.0001 28.2908 20.8026 33 18.4989V30.25ZM13.75 15.125C13.75 14.7603 13.8949 14.4106 14.1527 14.1527C14.4106 13.8949 14.7603 13.75 15.125 13.75H20.625C20.9897 13.75 21.3394 13.8949 21.5973 14.1527C21.8551 14.4106 22 14.7603 22 15.125C22 15.4897 21.8551 15.8394 21.5973 16.0973C21.3394 16.3551 20.9897 16.5 20.625 16.5H15.125C14.7603 16.5 14.4106 16.3551 14.1527 16.0973C13.8949 15.8394 13.75 15.4897 13.75 15.125Z" fill="var(--fill-0, #A90831)"/>
</svg>
