<svg preserveAspectRatio="none" width="100%" height="100%" overflow="visible" style="display: block;" viewBox="0 0 144.899 34.7193" fill="none" xmlns="http://www.w3.org/2000/svg">
<g id="Logo Text">
<path id="Path 9342" d="M6.87885 12.2043H21.0869V0.308594H27.9585V34.1708H21.0869V18.5364H6.87885V34.1708H0V0.308594H6.87885V12.2043Z" fill="var(--fill-0, #AB3347)"/>
<path id="Path 9343" d="M102.78 28.3355H114.057V34.1726H89.8887L103.062 18.4126C104.231 17.0161 105.405 15.4423 106.233 13.8168C106.743 12.7972 107.186 11.6224 107.186 10.4697C107.186 9.28017 106.888 8.14231 106.019 7.29261C105.117 6.42815 103.919 6.14738 102.708 6.14738C101.534 6.14738 100.492 6.47247 99.6426 7.29261C98.7641 8.13493 98.3784 9.19889 98.282 10.3959L98.2223 11.1495H91.5967V10.3294C91.5967 7.37389 92.5502 4.77308 94.7725 2.78553C97.1019 0.716707 100.079 0 103.131 0C106.003 0 108.849 0.650213 111.034 2.60081C113.149 4.47753 114.005 6.97489 114.005 9.74565C114.005 11.977 113.385 14.105 112.37 16.0703C111.692 17.3929 110.763 18.6785 109.868 19.8607C108.546 21.6045 107.127 23.2891 105.7 24.9515L102.78 28.3355Z" fill="var(--fill-0, #AB3347)"/>
<path id="Path 9344" d="M116.801 0H123.634V20.3779C123.634 22.4394 123.98 24.789 125.43 26.3627C126.821 27.8774 128.867 28.2912 130.848 28.2912C132.819 28.2912 134.844 27.87 136.234 26.3627C137.672 24.789 138.026 22.4394 138.026 20.3779V0H144.899V20.8656C144.899 24.6043 144.116 28.5202 141.353 31.2393C138.581 33.9657 134.582 34.7193 130.831 34.7193C127.072 34.7193 123.097 33.9657 120.33 31.2467C117.569 28.5202 116.801 24.5895 116.801 20.8656V0Z" fill="var(--fill-0, #AB3347)"/>
<path id="Path 9345" d="M50.2364 24.9449C50.2647 27.5015 49.2377 29.9468 47.4057 31.7201C46.4813 32.6066 45.4038 33.316 44.2139 33.7964C41.8133 34.7717 39.1387 34.7717 36.7366 33.7964C35.5619 33.3235 34.4906 32.6141 33.5891 31.7201C32.6731 30.8483 31.9423 29.7917 31.4464 28.6245C29.909 25.0335 30.7668 20.8661 33.5891 18.1694C34.4906 17.2827 35.5619 16.5735 36.7366 16.0931C39.1448 15.1252 41.827 15.1252 44.2368 16.0931C45.4176 16.5735 46.4974 17.2827 47.4057 18.1694C49.2377 19.9501 50.2578 22.3957 50.2364 24.9449ZM40.4833 30.309C41.8561 30.309 43.0017 29.8068 43.9047 28.7944C44.8054 27.7817 45.2546 26.4963 45.2546 24.9449C45.2546 23.4154 44.797 22.1445 43.8886 21.1173C42.9726 20.0904 41.8355 19.5807 40.4833 19.5807C39.1012 19.5807 37.9564 20.0904 37.0542 21.1173C36.1535 22.13 35.7027 23.4154 35.7027 24.9522C35.7027 26.511 36.1458 27.7968 37.0312 28.8016C37.9265 29.8068 39.0721 30.309 40.4833 30.309ZM74.3013 34.04H69.6455L68.5749 26.1418C68.5083 25.5874 68.4341 24.9669 68.3683 24.2797C68.3086 23.5998 68.2489 22.8537 68.206 22.0485C68.0859 22.8242 67.8579 23.7923 67.5173 24.9449C67.4439 25.1812 67.3849 25.366 67.3551 25.4843L64.8726 34.04H61.5552L59.072 25.4843C59.0353 25.366 58.984 25.1812 58.9189 24.9449C58.5708 23.7923 58.3412 22.8315 58.2302 22.0632C58.1866 22.7579 58.1277 23.4374 58.0603 24.1175C57.9945 24.7971 57.9126 25.4697 57.8239 26.1418L56.7533 34.04H52.1273L54.9427 15.7757H59.8717L62.6266 25.1959C62.6411 25.2621 62.6779 25.366 62.723 25.5212C62.9809 26.3633 63.1439 27.0804 63.2097 27.6786C63.2472 27.3166 63.313 26.9545 63.3957 26.6C63.4913 26.2009 63.6176 25.7205 63.7714 25.1663L66.55 15.7757H71.4936L74.3013 34.04ZM76.9758 34.04V15.7757H88.1692V19.7877H81.8291V22.9574H87.8064V26.8655H81.8291V29.9545H88.1692V34.04H76.9758Z" fill="var(--fill-0, #696B6C)"/>
</g>
</svg>
