<svg preserveAspectRatio="none" width="100%" height="100%" overflow="visible" style="display: block;" viewBox="0 0 62.0529 62.0529" fill="none" xmlns="http://www.w3.org/2000/svg">
<g id="Play Button Icon Container">
<rect width="62.0529" height="62.0529" rx="31.0265" fill="var(--fill-0, #A90831)"/>
<path id="Vector" d="M27.9238 35.3021L35.9752 31.028L27.9238 26.754V35.3021ZM45.8571 24.1468C46.0588 24.8164 46.1984 25.7139 46.2915 26.8537C46.4 27.9934 46.4466 28.9765 46.4466 29.8313L46.5397 31.028C46.5397 34.1481 46.2915 36.4418 45.8571 37.9092C45.4692 39.1914 44.5695 40.0178 43.1733 40.3739C42.4442 40.5591 41.11 40.6874 39.0623 40.7728C37.0456 40.8726 35.1995 40.9153 33.493 40.9153L31.0264 41.0008C24.5264 41.0008 20.4774 40.7728 18.8796 40.3739C17.4834 40.0178 16.5836 39.1914 16.1958 37.9092C15.9941 37.2396 15.8545 36.3421 15.7614 35.2023C15.6528 34.0626 15.6063 33.0795 15.6063 32.2247L15.5132 31.028C15.5132 27.9079 15.7614 25.6142 16.1958 24.1468C16.5836 22.8646 17.4834 22.0382 18.8796 21.6821C19.6087 21.4969 20.9428 21.3686 22.9906 21.2832C25.0073 21.1834 26.8534 21.1407 28.5598 21.1407L31.0264 21.0552C37.5265 21.0552 41.5754 21.2832 43.1733 21.6821C44.5695 22.0382 45.4692 22.8646 45.8571 24.1468Z" fill="var(--fill-0, white)"/>
</g>
</svg>
